<svg width="40" height="10" viewBox="0 0 40 10" fill="none" xmlns="http://www.w3.org/2000/svg">
<path d="M31.4405 9.984C29.7338 9.984 27.5578 9.6 24.9125 8.832C22.2672 7.97867 19.5792 7.168 16.8485 6.4C14.2032 5.632 12.0272 5.248 10.3205 5.248C6.39517 5.248 3.5365 6.82667 1.7445 9.984C1.14717 9.64267 0.763167 9.30133 0.5925 8.96C0.5925 6.74133 1.70183 4.82133 3.9205 3.2C6.13917 1.57866 8.5285 0.767998 11.0885 0.767998C13.6485 0.767998 16.2512 1.152 18.8965 1.92C21.5418 2.60266 24.0592 3.328 26.4485 4.096C28.8378 4.77867 30.8432 5.12 32.4645 5.12C33.8298 5.12 35.0245 4.77867 36.0485 4.096C37.1578 3.41333 37.9258 2.38933 38.3525 1.024C38.5232 1.10933 38.6938 1.23733 38.8645 1.408C39.1205 1.49333 39.2912 1.664 39.3765 1.92C39.3765 4.05333 38.6938 5.93067 37.3285 7.552C36.0485 9.17333 34.0858 9.984 31.4405 9.984Z" fill="black"/>
</svg>
